{"title":"August Alsina Ft. Nicki Minaj - No Love [Remix] [Explicit] 720p ","uid":11182700,"size":39806335,"categoryP":"video","categoryS":"music_videos","magnet":"?xt=urn:btih:e201f858dbfc96b033d46bc3da4162db83f25aca&amp;dn=August+Alsina+Ft.+Nicki+Minaj+-+No+Love+%5BRemix%5D+%5BExplicit%5D+720p+&amp;tr=udp%3A%2F%2Ftracker.openbittorrent.com%3A80&amp;tr=udp%3A%2F%2Fopen.demonii.com%3A1337&amp;tr=udp%3A%2F%2Ftracker.coppersurfer.tk%3A6969&amp;tr=udp%3A%2F%2Fexodus.desync.com%3A6969","seeders":3,"leechers":0,"uploader":"Sbyky","files":1,"time":1412883912,"description":"General\nComplete name                            : August Alsina Ft. Nicki Minaj - No Love [Remix] [Explicit] 720p [Sbyky].MP4\nFormat                                   : MPEG-4\nFormat profile                           : Base Media\nCodec ID                                 : isom\nFile size                                : 38.0 MiB\nDuration                                 : 4mn 47s\nOverall bit rate mode                    : Variable\nOverall bit rate                         : 1 109 Kbps\nEncoded date                             : UTC 2014-09-18 02:08:26\nTagged date                              : UTC 2014-09-18 02:08:26\n\nVideo\nID                                       : 1\nFormat                                   : AVC\nFormat/Info                              : Advanced Video Codec\nFormat profile                           : &lt;a class=&quot;__cf_email__&quot; href=&quot;/cdn-cgi/l/email-protection&quot; data-cfemail=&quot;e3ae828a8da3afd0cdd2&quot;&gt;[email&amp;#160;protected]&lt;/a&gt;&lt;script cf-hash='f9e31' type=&quot;text/javascript&quot;&gt;\n/* &lt;![CDATA[ */!function(){try{var t=&quot;currentScript&quot;in document?document.currentScript:function(){for(var t=document.getElementsByTagName(&quot;script&quot;),e=t.length;e--;)if(t[e].getAttribute(&quot;cf-hash&quot;))return t[e]}();if(t&amp;&amp;t.previousSibling){var e,r,n,i,c=t.previousSibling,a=c.getAttribute(&quot;data-cfemail&quot;);if(a){for(e=&quot;&quot;,r=parseInt(a.substr(0,2),16),n=2;a.length-n;n+=2)i=parseInt(a.substr(n,2),16)^r,e+=String.fromCharCode(i);e=document.createTextNode(e),c.parentNode.replaceChild(e,c)}}}catch(u){}}();/* ]]&gt; */&lt;/script&gt;\nFormat settings, CABAC                   : Yes\nFormat settings, ReFrames                : 3 frames\nCodec ID                                 : avc1\nCodec ID/Info                            : Advanced Video Coding\nDuration                                 : 4mn 46s\nBit rate                                 : 979 Kbps\nWidth                                    : 1 280 pixels\nHeight                                   : 720 pixels\nDisplay aspect ratio                     : 16:9\nFrame rate mode                          : Variable\nFrame rate                               : 23.976 fps\nMinimum frame rate                       : 23.974 fps\nMaximum frame rate                       : 23.981 fps\nColor space                              : YUV\nChroma subsampling                       : 4:2:0\nBit depth                                : 8 bits\nScan type                                : Progressive\nBits/(Pixel*Frame)                       : 0.044\nStream size                              : 33.5 MiB (88%)\nEncoded date                             : UTC 2014-09-18 02:08:26\nTagged date                              : UTC 2014-09-18 02:08:26\n\nAudio\nID                                       : 2\nFormat                                   : AAC\nFormat/Info                              : Advanced Audio Codec\nFormat profile                           : LC\nCodec ID                                 : 40\nDuration                                 : 4mn 47s\nBit rate mode                            : Variable\nBit rate                                 : 126 Kbps\nChannel(s)                               : 2 channels\nChannel positions                        : Front: L R\nSampling rate                            : 44.1 KHz\nCompression mode                         : Lossy\nStream size                              : 4.30 MiB (11%)\nEncoded date                             : UTC 2014-09-18 02:07:47\nTagged date                              : UTC 2014-09-18 02:07:47\n\nShared By Sbyky\n","torrent":{"xt":"urn:btih:e201f858dbfc96b033d46bc3da4162db83f25aca","amp;dn":"August+Alsina+Ft.+Nicki+Minaj+-+No+Love+%5BRemix%5D+%5BExplicit%5D+720p+","amp;tr":["udp%3A%2F%2Ftracker.openbittorrent.com%3A80","udp%3A%2F%2Fopen.demonii.com%3A1337","udp%3A%2F%2Ftracker.coppersurfer.tk%3A6969","udp%3A%2F%2Fexodus.desync.com%3A6969"],"infoHash":"e201f858dbfc96b033d46bc3da4162db83f25aca","infoHashBuffer":{"type":"Buffer","data":[226,1,248,88,219,252,150,176,51,212,107,195,218,65,98,219,131,242,90,202]},"announce":[],"urlList":[]}}